<svg xmlns="http://www.w3.org/2000/svg" width="41" height="14" fill="#000"><path d="m1,3l-1,3,9-3,1-3L1,3Z"/><path d="m1.83,11.63c.04.09.13.16.25.2.12.04.32.06.6.06.02,0,.03.02.03.06s0,.06-.03.06c-.26,0-.46,0-.61,0h-.83s-.7,0-.7,0c-.13,0-.3,0-.52,0-.02,0-.03-.02-.03-.06s0-.06.03-.06c.2,0,.35-.02.44-.05.09-.03.15-.09.19-.19.03-.09.05-.23.05-.43v-4.42c0-.19-.02-.33-.05-.42-.03-.09-.1-.15-.19-.19-.1-.04-.24-.05-.44-.05-.02,0-.03-.02-.03-.06,0-.04,0-.06.03-.06h.51c.29.02.53.03.7.03.15,0,.33-.01.54-.03.08,0,.19-.01.32-.02s.27-.01.44-.01c.65,0,1.16.14,1.54.41.38.27.56.69.56,1.26,0,.39-.1.73-.3,1-.2.27-.47.48-.79.62s-.65.21-.99.21c-.17,0-.32-.02-.45-.05-.01,0-.02-.02-.02-.05,0-.02,0-.04.01-.06,0-.02.02-.03.03-.02.1.02.2.04.32.04.29,0,.54-.14.73-.41.19-.27.29-.66.29-1.17s-.11-.89-.32-1.17c-.21-.27-.52-.41-.93-.41-.18,0-.3.04-.36.12-.06.08-.1.25-.1.49v4.37c0,.2.02.35.07.44Z"/><path d="m8.35,11.41s.04.01.05.04c0,.03,0,.05-.02.06l-.98.47s-.06.02-.1.02c-.1,0-.2-.05-.29-.16s-.16-.26-.2-.44l-.41.29c-.15.11-.28.19-.41.23s-.27.07-.43.07c-.27,0-.48-.06-.62-.18-.14-.12-.21-.29-.21-.51,0-.17.04-.31.12-.42.08-.1.19-.19.31-.25.12-.06.3-.13.52-.21l.24-.09.86-.32v-.54c0-.41-.03-.7-.1-.89-.07-.18-.18-.28-.34-.28-.34,0-.53.26-.57.78-.02.19-.07.33-.17.41-.09.08-.22.12-.39.12s-.28-.03-.35-.1c-.07-.07-.11-.15-.11-.26,0-.19.11-.37.33-.55s.49-.32.81-.43c.32-.11.59-.16.84-.16.28,0,.51.09.68.26s.26.44.26.8v1.69c0,.18.03.33.1.43.07.1.16.15.28.15.09,0,.18-.02.28-.07h.01Zm-1.56-.17s0-.07,0-.12v-.92l-.41.19s-.08.03-.19.07c-.11.04-.2.11-.28.21-.08.1-.12.21-.12.33,0,.15.05.27.15.36s.21.13.34.13c.1,0,.21-.04.32-.1l.21-.14Z"/><path d="m19.42,11.94s0,.06-.03.06c-.22,0-.4,0-.53,0h-.74s-.86,0-.86,0c-.12,0-.27,0-.47,0-.02,0-.03-.02-.03-.06s0-.06.03-.06c.24,0,.41-.02.52-.05.11-.03.18-.09.22-.18s.06-.23.06-.43v-2.2h-3.09v2.2c0,.19.02.33.06.43s.11.15.22.19c.11.03.28.05.52.05.01,0,.02.02.02.06s0,.06-.02.06c-.22,0-.4,0-.53,0h-.83s-.72,0-.72,0c-.13,0-.3,0-.53,0-.01,0-.02-.02-.02-.06s0-.06.02-.06c.22,0,.39-.02.49-.05.1-.03.17-.09.21-.19s.06-.23.06-.43v-4.42c0-.19-.02-.33-.06-.42s-.11-.15-.21-.19c-.1-.04-.26-.05-.47-.05-.02,0-.03-.02-.03-.06,0-.04,0-.06.03-.06h.52c.29.02.53.03.71.03.24,0,.52,0,.84-.02h.52s.02,0,.02.05c0,.04,0,.06-.02.06-.23,0-.4.02-.51.06-.11.04-.18.1-.22.2s-.06.23-.06.43v1.94h3.09v-1.94c0-.19-.02-.33-.06-.43s-.11-.16-.22-.2c-.11-.04-.28-.06-.52-.06-.02,0-.03-.02-.03-.06,0-.04,0-.06.03-.06h.47c.32.02.61.03.86.03.17,0,.42,0,.74-.02h.53s.03,0,.03.05c0,.04,0,.06-.03.06-.22,0-.38.02-.48.05-.11.03-.18.1-.21.19s-.05.23-.05.42v4.42c0,.19.02.33.05.43s.1.15.21.19c.1.03.26.05.49.05.02,0,.03.02.03.06Z"/><path d="m19.87,11.94s0-.06.03-.06c.2,0,.33-.05.4-.14.07-.09.11-.27.11-.52v-1.71c0-.22-.02-.37-.07-.47s-.12-.14-.22-.14c-.08,0-.2.04-.35.1h0s-.04-.02-.06-.05,0-.06,0-.06l1.44-.67h.03s.06,0,.1.04.05.06.05.09v.21c-.01.26-.02.57-.02.94v1.73c0,.25.04.43.11.52s.21.14.41.14c.02,0,.03.02.03.06s0,.06-.03.06c-.17,0-.3,0-.39,0h-.57s-.56,0-.56,0c-.1,0-.23,0-.39,0-.02,0-.03-.02-.03-.06Zm.52-4.82c-.1-.1-.15-.25-.15-.43,0-.17.05-.3.16-.4.1-.1.25-.15.43-.15s.32.05.41.14c.1.1.14.23.14.4,0,.18-.05.33-.14.43-.1.1-.23.15-.41.15s-.33-.05-.43-.15Z"/><path d="m23.37,9.09c.13.13.32.27.57.42.24.14.42.25.54.33.12.08.22.19.32.33s.14.32.14.52c0,.22-.05.42-.16.61-.11.19-.27.35-.49.46-.22.12-.47.18-.77.18-.35,0-.68-.09-.99-.26-.04-.04-.06-.08-.06-.12l-.02-.95s.02-.03.05-.03c.03,0,.05,0,.06.01.1.32.27.59.51.81.24.22.47.33.72.33.13,0,.24-.04.32-.12s.12-.2.12-.36c0-.24-.07-.42-.2-.56s-.33-.28-.59-.43c-.22-.12-.39-.22-.51-.3-.12-.08-.22-.18-.31-.32s-.13-.31-.13-.52c0-.38.13-.65.4-.83s.6-.26.98-.26c.15,0,.28.01.4.03.12.02.25.06.4.12.06.02.09.05.09.1,0,.16,0,.28,0,.37v.48s-.03.03-.07.03-.06,0-.06-.03c0-.12-.05-.25-.15-.4-.1-.14-.23-.27-.4-.37-.16-.1-.33-.15-.5-.15-.26,0-.39.12-.39.37,0,.18.07.34.2.48Z"/><path d="m28.47,11.22s.05.01.06.04c.02.02.01.04,0,.06-.24.24-.46.41-.69.52-.22.11-.46.17-.71.17-.28,0-.52-.07-.72-.2-.2-.13-.3-.36-.3-.68v-2.12c0-.2-.04-.33-.11-.41-.07-.08-.2-.11-.38-.11,0,0-.01,0-.02-.03,0-.02-.01-.04-.01-.06,0-.03,0-.05,0-.06s.02-.02.03-.02c.32-.01.59-.08.79-.21.2-.13.36-.32.46-.58.01-.02.04-.04.08-.04s.06.01.06.04v.76c.37,0,.78-.03,1.24-.09.01,0,.03.02.04.07.02.05.02.1.02.16,0,.06-.01.13-.03.19-.02.06-.05.09-.07.08-.41-.09-.82-.14-1.2-.14v2.27c0,.24.06.42.19.53.12.11.29.17.49.17.25,0,.5-.1.75-.29h.02Z"/><path d="m29.86,11.73c-.3-.18-.52-.43-.68-.73-.16-.31-.24-.65-.24-1.01,0-.41.1-.77.32-1.06s.48-.51.8-.65c.33-.14.66-.21,1-.21.39,0,.74.09,1.03.28.29.18.52.43.67.73.16.3.23.63.23.97,0,.38-.1.72-.29,1.02-.19.3-.45.53-.77.69-.32.17-.67.25-1.05.25-.39,0-.74-.09-1.04-.27Zm1.89-.3c.13-.24.2-.6.2-1.06s-.06-.83-.17-1.15-.26-.56-.45-.72c-.18-.16-.38-.24-.59-.24-.51,0-.77.46-.77,1.37,0,.43.05.8.16,1.13.11.33.26.58.44.77s.39.27.61.27c.25,0,.44-.12.57-.37Z"/><path d="m36.6,8.37c.14.1.21.23.21.38,0,.13-.04.24-.12.33-.08.09-.19.13-.32.13-.1,0-.17-.02-.23-.06-.06-.04-.12-.1-.19-.17-.06-.06-.11-.11-.15-.14s-.09-.04-.15-.04c-.06,0-.13.02-.21.07-.07.05-.19.15-.34.3v2.05c0,.25.06.43.18.52s.34.14.67.14c.03,0,.04.02.04.06s-.01.06-.04.06c-.22,0-.4,0-.52,0h-.77s-.56,0-.56,0c-.1,0-.23,0-.39,0-.02,0-.03-.02-.03-.06s0-.06.03-.06c.2,0,.33-.05.4-.14.07-.09.11-.27.11-.52v-1.8c0-.2-.02-.34-.07-.43s-.12-.14-.22-.14c-.11,0-.26.04-.46.13h-.02s-.03-.02-.04-.05,0-.05,0-.06l1.33-.65s.06-.02.07-.02c.07,0,.14.07.2.2.06.13.1.31.11.53.26-.27.48-.46.64-.56.17-.11.32-.16.44-.16.15,0,.29.05.43.16Z"/><path d="m41,8.27s0,.05-.02.05c-.18,0-.35.08-.48.24-.14.16-.26.39-.37.69l-.96,2.56c-.31.81-.6,1.38-.88,1.7s-.59.49-.93.49c-.17,0-.31-.04-.4-.11-.09-.07-.14-.18-.14-.32s.04-.23.12-.3c.08-.07.18-.1.29-.1.06,0,.12,0,.16.03.04.02.1.05.16.09.11.08.21.11.31.11.13,0,.25-.05.36-.15.11-.1.22-.27.33-.5s.25-.57.42-1l-1.39-2.8c-.13-.25-.23-.41-.3-.49s-.16-.12-.26-.12c-.02,0-.03-.02-.03-.05s0-.05.03-.05c.16,0,.29,0,.37,0h.36s.6,0,.6,0c.09,0,.22,0,.37,0,.02,0,.03.02.03.05s0,.05-.03.05c-.15,0-.26.01-.33.04-.07.03-.1.07-.1.13,0,.05.02.1.05.17l1.02,2.09.52-1.51c.05-.15.08-.29.08-.41,0-.16-.05-.29-.14-.38-.09-.09-.23-.13-.4-.13-.01,0-.02-.02-.02-.05s0-.05.02-.05c.16,0,.27,0,.36,0h.52s.35,0,.35,0c.07,0,.18,0,.32,0,.01,0,.02.02.02.05Z"/><path d="m12.09,8.27s0,.05-.02.05c-.18,0-.35.08-.48.24-.14.16-.26.39-.37.69l-.96,2.56c-.31.81-.6,1.38-.88,1.7s-.59.49-.93.49c-.17,0-.31-.04-.4-.11-.09-.07-.14-.18-.14-.32s.04-.23.12-.3c.08-.07.18-.1.29-.1.06,0,.12,0,.16.03.04.02.1.05.16.09.11.08.21.11.31.11.13,0,.25-.05.36-.15.11-.1.22-.27.33-.5s.25-.57.42-1l-1.39-2.8c-.13-.25-.23-.41-.3-.49s-.16-.12-.26-.12c-.02,0-.03-.02-.03-.05s0-.05.03-.05c.16,0,.29,0,.37,0h.36s.6,0,.6,0c.09,0,.22,0,.37,0,.02,0,.03.02.03.05s0,.05-.03.05c-.15,0-.26.01-.33.04-.07.03-.1.07-.1.13,0,.05.02.1.05.17l1.02,2.09.52-1.51c.05-.15.08-.29.08-.41,0-.16-.05-.29-.14-.38-.09-.09-.23-.13-.4-.13-.01,0-.02-.02-.02-.05s0-.05.02-.05c.16,0,.27,0,.36,0h.52s.35,0,.35,0c.07,0,.18,0,.32,0,.01,0,.02.02.02.05Z"/></svg>