<svg width="32" height="32" xmlns="http://www.w3.org/2000/svg"><path d="M16 32C24.8366 32 32 24.8366 32 16C32 7.16344 24.8366 0 16 0C7.16344 0 0 7.16344 0 16C0 24.8366 7.16344 32 16 32Z" fill="#232C93"/><path d="M16 0C7.17667 0 0 7.17667 0 16C0 24.8233 7.17667 32 16 32C24.8233 32 32 24.8233 32 16C32 7.17667 24.8233 0 16 0ZM16 29.6667C8.46333 29.6667 2.33333 23.5367 2.33333 16C2.33333 8.46333 8.46333 2.33333 16 2.33333C23.5367 2.33333 29.6667 8.46333 29.6667 16C29.6667 23.5367 23.5367 29.6667 16 29.6667Z" fill="#C1C5FE"/><path d="M16 2.66666C8.63663 2.66666 2.66663 8.63666 2.66663 16C2.66663 23.3633 8.63663 29.3333 16 29.3333C23.3633 29.3333 29.3333 23.3633 29.3333 16C29.3333 8.63666 23.3633 2.66666 16 2.66666ZM21.52 16.6433C20.71 17.5233 19.25 17.9633 17.1366 17.9633H13.3033V24.0367H11.3266V9.09666H16.9633C17.9566 9.09666 18.7133 9.14332 19.2366 9.23999C19.97 9.36332 20.5866 9.59666 21.08 9.93666C21.5733 10.2767 21.9766 10.76 22.2766 11.38C22.5766 12 22.73 12.6767 22.73 13.42C22.73 14.69 22.3266 15.7667 21.5166 16.6467L21.52 16.6433Z" fill="#C1C5FE"/><path d="M18.97 10.9933C18.6367 10.9033 18.0233 10.86 17.1267 10.86H13.3033V16.2H17.1667C18.4433 16.2 19.35 15.9633 19.8867 15.4867C20.4233 15.01 20.6933 14.3433 20.6933 13.48C20.6933 12.8533 20.5367 12.32 20.22 11.8733C19.9033 11.4267 19.4867 11.1333 18.97 10.9933Z" fill="#C1C5FE"/></svg>